<?xml version="1.0" standalone="no"?>
<!DOCTYPE svg PUBLIC "-//W3C//DTD SVG 20010904//EN"
 "http://www.w3.org/TR/2001/REC-SVG-20010904/DTD/svg10.dtd">
<svg version="1.0" xmlns="http://www.w3.org/2000/svg"
 width="3187.000000pt" height="3187.000000pt" viewBox="0 0 3187.000000 3187.000000"
 preserveAspectRatio="xMidYMid meet">
<metadata>
Created by potrace 1.14, written by Peter Selinger 2001-2017
</metadata>
<g transform="translate(0.000000,3187.000000) scale(0.100000,-0.100000)"
fill="#000000" stroke="none">
<path d="M13375 30894 c-323 -287 -838 -809 -1055 -1069 -59 -71 -188 -240
-230 -301 -8 -12 -55 -80 -105 -151 -200 -286 -396 -596 -533 -843 -13 -25
-28 -49 -32 -55 -4 -5 -27 -46 -50 -90 -23 -44 -55 -103 -71 -131 -57 -104
-279 -556 -279 -569 0 -3 -16 -39 -36 -82 -53 -113 -194 -467 -249 -623 -95
-274 -184 -561 -224 -725 -5 -22 -19 -76 -30 -120 -22 -86 -49 -208 -81 -370
-6 -27 -12 -63 -14 -80 -3 -16 -12 -75 -21 -130 -22 -132 -23 -143 -40 -298
-4 -32 -8 -66 -10 -75 -1 -9 -6 -69 -10 -132 -4 -63 -9 -137 -11 -165 -9 -146
-3 -606 10 -755 11 -124 17 -187 21 -215 3 -16 7 -52 10 -80 5 -45 17 -125 29
-195 3 -14 10 -54 16 -90 6 -36 15 -85 21 -110 9 -42 66 -287 74 -320 32 -131
141 -465 204 -625 101 -255 308 -686 402 -835 9 -14 41 -68 73 -120 165 -277
370 -572 605 -875 114 -146 329 -408 407 -495 17 -19 66 -75 109 -125 43 -49
85 -97 94 -105 9 -9 34 -36 55 -60 35 -40 181 -199 275 -299 143 -153 545
-562 848 -864 1253 -1245 1552 -1546 1893 -1907 80 -84 161 -170 180 -191 56
-59 219 -235 239 -258 10 -11 56 -62 103 -113 47 -51 100 -111 119 -132 19
-22 43 -49 54 -61 17 -17 69 -76 152 -171 66 -77 129 -149 138 -158 6 -6 35
-40 65 -76 30 -35 67 -78 82 -95 28 -31 218 -260 278 -335 19 -24 58 -71 85
-105 28 -33 64 -78 80 -99 17 -21 50 -64 75 -96 25 -31 56 -72 70 -90 14 -18
30 -38 35 -44 12 -14 253 -336 321 -430 100 -140 155 -218 275 -396 91 -134
270 -411 318 -492 9 -14 48 -80 86 -145 39 -65 75 -127 82 -138 7 -11 16 -27
20 -35 4 -8 21 -40 39 -70 111 -191 363 -696 426 -854 10 -27 27 -68 37 -90
18 -39 79 -192 135 -336 26 -69 140 -417 175 -535 22 -76 93 -367 110 -455 19
-93 21 -102 41 -222 11 -64 23 -138 26 -165 3 -26 7 -61 10 -78 2 -16 6 -57
10 -90 3 -33 7 -71 10 -85 11 -67 19 -279 19 -505 0 -344 -12 -508 -61 -825
-21 -139 -19 -128 -48 -265 -15 -66 -39 -186 -56 -266 -16 -80 -38 -178 -49
-218 -24 -86 -81 -205 -116 -244 -44 -46 -14 -31 75 40 26 21 155 127 166 138
6 5 48 42 92 80 160 137 535 529 677 707 6 7 37 47 70 88 33 41 62 77 65 80 3
3 17 21 30 40 13 19 27 37 30 40 29 26 283 399 369 545 30 50 61 101 70 115
52 80 295 551 338 656 7 16 22 52 34 79 49 114 57 132 77 185 11 30 32 84 45
120 49 126 158 456 172 520 2 8 17 65 33 125 17 61 33 124 36 140 8 36 10 49
31 145 9 41 19 84 21 95 2 11 8 43 14 70 5 28 12 68 16 90 3 22 7 47 9 55 2 8
6 29 9 45 10 70 19 121 21 137 2 9 6 48 10 85 3 37 8 79 10 93 4 23 8 60 20
177 2 27 7 91 11 143 3 52 8 120 10 150 4 64 4 618 0 700 -8 149 -18 298 -21
320 -2 14 -6 59 -10 100 -4 41 -8 86 -10 100 -2 14 -7 50 -10 80 -3 30 -8 66
-10 80 -2 14 -9 63 -15 110 -6 47 -13 96 -16 110 -2 14 -11 63 -19 110 -19
113 -51 284 -64 343 -6 26 -14 64 -17 85 -3 20 -8 41 -11 45 -3 5 -7 21 -10
37 -9 59 -109 445 -154 595 -42 140 -169 531 -190 585 -10 25 -40 106 -67 180
-339 918 -892 1984 -1546 2975 -359 546 -863 1258 -1408 1990 -190 255 -280
376 -618 830 -189 253 -377 505 -417 560 -41 55 -82 110 -91 122 -10 12 -42
56 -72 98 -30 42 -78 106 -105 143 -61 81 -201 272 -248 339 -19 26 -103 145
-188 263 -85 118 -201 283 -258 365 -58 83 -116 166 -130 185 -52 70 -381 561
-533 795 -141 217 -427 684 -518 845 -23 41 -54 95 -68 119 -14 25 -38 67 -53
93 -16 27 -29 51 -29 53 0 2 -17 34 -39 72 -21 37 -51 91 -66 118 -40 71 -334
656 -372 740 -18 39 -47 104 -66 145 -208 461 -408 1023 -517 1450 -18 69 -33
132 -35 140 -2 8 -8 33 -13 55 -17 62 -69 329 -88 440 -18 112 -19 118 -28
195 -4 30 -9 66 -11 80 -4 23 -10 78 -20 200 -25 273 -25 756 0 970 8 76 14
140 12 140 -1 0 -20 -16 -42 -36z"/>
<path d="M13159 17552 c-9 -9 -49 -47 -90 -83 -97 -87 -345 -333 -438 -434
-149 -163 -286 -344 -456 -605 -97 -147 -235 -374 -235 -385 0 -3 -11 -23 -25
-45 -81 -128 -262 -515 -358 -765 -168 -436 -257 -797 -314 -1277 -12 -101
-10 -568 3 -683 24 -220 28 -247 70 -435 89 -405 243 -781 473 -1155 65 -107
190 -291 240 -356 20 -26 45 -60 56 -75 33 -46 176 -226 214 -270 20 -22 45
-52 55 -65 17 -22 143 -167 156 -179 3 -3 29 -32 59 -65 170 -188 408 -432
1041 -1065 624 -623 853 -858 1050 -1075 30 -33 58 -62 61 -65 3 -3 66 -72
139 -155 73 -82 147 -166 165 -185 84 -94 346 -414 463 -565 72 -93 136 -175
141 -181 25 -30 198 -275 282 -399 121 -180 208 -321 343 -555 48 -83 234
-464 276 -565 111 -266 225 -620 255 -793 3 -18 12 -63 19 -100 13 -62 18 -93
32 -197 3 -22 7 -51 9 -65 19 -121 25 -483 11 -670 -4 -58 -9 -107 -11 -110
-2 -3 -6 -28 -9 -55 -11 -93 -22 -152 -101 -528 -7 -30 -55 -130 -72 -149 -21
-23 -3 -23 23 0 10 9 42 35 69 57 151 120 370 341 552 558 50 59 188 246 241
326 201 305 362 631 477 961 51 146 118 387 139 500 3 14 12 59 20 100 18 93
23 123 36 230 6 47 13 99 15 115 26 175 26 646 0 945 -14 171 -65 482 -111
675 -9 39 -18 79 -20 90 -16 85 -123 443 -186 625 -38 111 -163 430 -195 500
-14 30 -33 73 -43 95 -226 504 -488 969 -850 1510 -106 159 -158 235 -270 395
-34 48 -184 259 -200 280 -10 14 -94 129 -187 255 -151 207 -196 268 -221 300
-59 76 -673 904 -827 1115 -367 504 -797 1137 -940 1385 -39 68 -118 200 -140
235 -12 19 -36 60 -52 90 -17 30 -43 78 -58 105 -152 273 -331 645 -416 865
-16 41 -34 84 -39 95 -26 58 -137 387 -156 465 -2 8 -17 67 -34 130 -35 133
-86 389 -96 475 -3 32 -8 68 -10 79 -2 12 -7 59 -10 106 -3 47 -7 101 -10 120
-5 45 -5 338 1 413 2 31 7 84 10 117 3 33 5 60 3 59 -2 0 -10 -8 -19 -17z"/>
<path d="M15251 1090 l-2 -150 26 0 c24 0 25 2 25 65 0 63 1 65 25 65 24 0 25
-2 25 -65 0 -63 1 -65 25 -65 l25 0 0 150 0 150 -24 0 c-20 0 -25 -5 -24 -27
2 -92 -1 -103 -27 -103 -24 0 -25 2 -25 65 0 62 -1 65 -24 65 l-24 0 -1 -150z"/>
<path d="M15482 1090 l-1 -150 65 0 c57 0 64 2 64 20 0 17 -7 20 -39 20 l-39
0 -4 45 -3 45 36 0 c33 0 36 2 32 24 -4 20 -10 23 -34 19 -28 -4 -29 -3 -29
41 l0 46 40 0 c33 0 40 3 40 20 0 18 -7 20 -64 20 l-64 0 0 -150z"/>
<path d="M15688 1233 c-4 -7 -2 -241 1 -280 1 -9 20 -13 61 -13 53 0 60 2 60
20 0 20 -4 22 -52 22 l-28 1 3 128 c2 127 2 129 -20 129 -12 0 -23 -3 -25 -7z"/>
<path d="M15879 1233 c-1 -11 -1 -253 0 -276 1 -13 7 -17 23 -15 22 3 23 5 23
148 0 142 -1 145 -23 148 -12 2 -22 0 -23 -5z"/>
<path d="M16003 1226 c3 -8 11 -34 18 -57 7 -24 16 -49 21 -55 5 -7 -3 -45
-20 -93 l-29 -81 23 0 c18 0 25 10 39 55 10 30 21 53 24 50 4 -2 13 -27 21
-54 11 -43 17 -51 37 -51 28 0 28 -1 -1 84 l-23 69 24 70 c28 84 28 79 1 75
-17 -2 -26 -15 -39 -58 l-16 -55 -19 58 c-15 49 -21 57 -42 57 -17 0 -22 -4
-19 -14z"/>
<path d="M16246 1225 c-17 -13 -19 -29 -20 -134 -1 -109 1 -122 19 -135 25
-19 75 -20 101 -2 16 12 19 29 22 128 3 104 2 115 -18 136 -24 26 -75 29 -104
7z m69 -34 c5 -9 8 -100 6 -174 -1 -31 -28 -48 -42 -26 -9 15 -11 172 -2 195
6 16 29 19 38 5z"/>
<path d="M16434 1223 c5 -18 12 -73 21 -173 3 -30 7 -64 10 -75 2 -11 4 -23 4
-27 1 -5 14 -8 30 -8 30 0 41 18 41 68 0 35 20 26 22 -10 0 -18 1 -39 1 -45
-1 -8 12 -13 33 -13 25 0 34 5 35 18 2 20 4 36 13 112 19 154 19 170 -2 170
-18 0 -21 -10 -28 -77 -4 -43 -8 -85 -8 -95 -2 -36 -16 -29 -17 8 0 21 -3 50
-5 64 -3 14 -6 41 -7 60 -2 30 -6 35 -26 35 -27 0 -26 4 -35 -120 -4 -49 -9
-91 -10 -93 -2 -2 -7 34 -12 80 -4 46 -9 86 -10 91 -1 4 -2 16 -3 27 -1 14 -8
20 -27 20 -19 0 -24 -4 -20 -17z m123 -163 c1 -11 -2 -20 -7 -20 -6 0 -7 17
-1 38 3 8 7 -1 8 -18z"/>
</g>
</svg>
